<mxfile host="Electron" agent="Mozilla/5.0 (Windows NT 10.0; Win64; x64) AppleWebKit/537.36 (KHTML, like Gecko) draw.io/25.0.2 Chrome/128.0.6613.186 Electron/32.2.5 Safari/537.36" version="25.0.2">
  <diagram name="Page-1" id="81zoXP_URIdICwAk6w9r">
    <mxGraphModel dx="3473" dy="4087" grid="1" gridSize="10" guides="1" tooltips="1" connect="1" arrows="1" fold="1" page="1" pageScale="1" pageWidth="850" pageHeight="1100" math="0" shadow="0">
      <root>
        <mxCell id="0" />
        <mxCell id="1" parent="0" />
        <mxCell id="yWfFhCfaxmLzrIKiqw5u-1" value="Student" style="shape=umlActor;verticalLabelPosition=bottom;verticalAlign=top;html=1;outlineConnect=0;" vertex="1" parent="1">
          <mxGeometry x="620" y="80" width="30" height="60" as="geometry" />
        </mxCell>
        <mxCell id="yWfFhCfaxmLzrIKiqw5u-2" value="View Documents" style="ellipse;whiteSpace=wrap;html=1;" vertex="1" parent="1">
          <mxGeometry x="130" y="220" width="180" height="80" as="geometry" />
        </mxCell>
        <mxCell id="yWfFhCfaxmLzrIKiqw5u-3" value="Download Documents" style="ellipse;whiteSpace=wrap;html=1;" vertex="1" parent="1">
          <mxGeometry x="430" y="220" width="180" height="80" as="geometry" />
        </mxCell>
        <mxCell id="yWfFhCfaxmLzrIKiqw5u-4" value="Search Documents" style="ellipse;whiteSpace=wrap;html=1;" vertex="1" parent="1">
          <mxGeometry x="770" y="220" width="210" height="80" as="geometry" />
        </mxCell>
        <mxCell id="yWfFhCfaxmLzrIKiqw5u-6" value="" style="endArrow=none;html=1;rounded=0;entryX=0;entryY=0.3333333333333333;entryDx=0;entryDy=0;entryPerimeter=0;" edge="1" parent="1" target="yWfFhCfaxmLzrIKiqw5u-1">
          <mxGeometry width="50" height="50" relative="1" as="geometry">
            <mxPoint x="250" y="220" as="sourcePoint" />
            <mxPoint x="300" y="170" as="targetPoint" />
          </mxGeometry>
        </mxCell>
        <mxCell id="yWfFhCfaxmLzrIKiqw5u-7" value="" style="endArrow=none;html=1;rounded=0;entryX=0;entryY=1;entryDx=0;entryDy=0;entryPerimeter=0;" edge="1" parent="1" target="yWfFhCfaxmLzrIKiqw5u-1">
          <mxGeometry width="50" height="50" relative="1" as="geometry">
            <mxPoint x="550" y="220" as="sourcePoint" />
            <mxPoint x="600" y="170" as="targetPoint" />
          </mxGeometry>
        </mxCell>
        <mxCell id="yWfFhCfaxmLzrIKiqw5u-8" value="" style="endArrow=none;html=1;rounded=0;entryX=1;entryY=0.3333333333333333;entryDx=0;entryDy=0;entryPerimeter=0;" edge="1" parent="1" target="yWfFhCfaxmLzrIKiqw5u-1">
          <mxGeometry width="50" height="50" relative="1" as="geometry">
            <mxPoint x="850" y="220" as="sourcePoint" />
            <mxPoint x="900" y="170" as="targetPoint" />
          </mxGeometry>
        </mxCell>
        <mxCell id="yWfFhCfaxmLzrIKiqw5u-11" value="Teacher" style="shape=umlActor;verticalLabelPosition=bottom;verticalAlign=top;html=1;outlineConnect=0;" vertex="1" parent="1">
          <mxGeometry x="650" y="480" width="30" height="60" as="geometry" />
        </mxCell>
        <mxCell id="yWfFhCfaxmLzrIKiqw5u-12" value="Upload Documents" style="ellipse;whiteSpace=wrap;html=1;" vertex="1" parent="1">
          <mxGeometry x="320" y="610" width="180" height="80" as="geometry" />
        </mxCell>
        <mxCell id="yWfFhCfaxmLzrIKiqw5u-13" value="Manage Metadata" style="ellipse;whiteSpace=wrap;html=1;" vertex="1" parent="1">
          <mxGeometry x="650" y="610" width="180" height="80" as="geometry" />
        </mxCell>
        <mxCell id="yWfFhCfaxmLzrIKiqw5u-14" value="Remove Documents" style="ellipse;whiteSpace=wrap;html=1;" vertex="1" parent="1">
          <mxGeometry x="1000" y="610" width="190" height="80" as="geometry" />
        </mxCell>
        <mxCell id="yWfFhCfaxmLzrIKiqw5u-17" value="" style="endArrow=none;html=1;rounded=0;exitX=0.5;exitY=0;exitDx=0;exitDy=0;" edge="1" parent="1" source="yWfFhCfaxmLzrIKiqw5u-12">
          <mxGeometry width="50" height="50" relative="1" as="geometry">
            <mxPoint x="610" y="560" as="sourcePoint" />
            <mxPoint x="650" y="500" as="targetPoint" />
          </mxGeometry>
        </mxCell>
        <mxCell id="yWfFhCfaxmLzrIKiqw5u-18" value="" style="endArrow=none;html=1;rounded=0;exitX=0.5;exitY=0;exitDx=0;exitDy=0;entryX=1;entryY=0.3333333333333333;entryDx=0;entryDy=0;entryPerimeter=0;" edge="1" parent="1" source="yWfFhCfaxmLzrIKiqw5u-13" target="yWfFhCfaxmLzrIKiqw5u-11">
          <mxGeometry width="50" height="50" relative="1" as="geometry">
            <mxPoint x="610" y="560" as="sourcePoint" />
            <mxPoint x="660" y="510" as="targetPoint" />
          </mxGeometry>
        </mxCell>
        <mxCell id="yWfFhCfaxmLzrIKiqw5u-19" value="" style="endArrow=none;html=1;rounded=0;exitX=0.246;exitY=0.021;exitDx=0;exitDy=0;exitPerimeter=0;entryX=0.75;entryY=0.1;entryDx=0;entryDy=0;entryPerimeter=0;" edge="1" parent="1" source="yWfFhCfaxmLzrIKiqw5u-14" target="yWfFhCfaxmLzrIKiqw5u-11">
          <mxGeometry width="50" height="50" relative="1" as="geometry">
            <mxPoint x="610" y="560" as="sourcePoint" />
            <mxPoint x="660" y="510" as="targetPoint" />
          </mxGeometry>
        </mxCell>
        <mxCell id="yWfFhCfaxmLzrIKiqw5u-20" value="Admin" style="shape=umlActor;verticalLabelPosition=bottom;verticalAlign=top;html=1;outlineConnect=0;" vertex="1" parent="1">
          <mxGeometry x="790" y="860" width="30" height="60" as="geometry" />
        </mxCell>
        <mxCell id="yWfFhCfaxmLzrIKiqw5u-21" value="Configure Permissions" style="ellipse;whiteSpace=wrap;html=1;" vertex="1" parent="1">
          <mxGeometry x="470" y="990" width="160" height="80" as="geometry" />
        </mxCell>
        <mxCell id="yWfFhCfaxmLzrIKiqw5u-22" value="Manage Storage" style="ellipse;whiteSpace=wrap;html=1;" vertex="1" parent="1">
          <mxGeometry x="760" y="990" width="180" height="80" as="geometry" />
        </mxCell>
        <mxCell id="yWfFhCfaxmLzrIKiqw5u-23" value="Monitor System Usage" style="ellipse;whiteSpace=wrap;html=1;" vertex="1" parent="1">
          <mxGeometry x="1050" y="990" width="190" height="80" as="geometry" />
        </mxCell>
        <mxCell id="yWfFhCfaxmLzrIKiqw5u-24" value="" style="endArrow=none;html=1;rounded=0;exitX=0.5;exitY=0;exitDx=0;exitDy=0;entryX=0;entryY=0.3333333333333333;entryDx=0;entryDy=0;entryPerimeter=0;" edge="1" parent="1" source="yWfFhCfaxmLzrIKiqw5u-21" target="yWfFhCfaxmLzrIKiqw5u-20">
          <mxGeometry width="50" height="50" relative="1" as="geometry">
            <mxPoint x="740" y="1060" as="sourcePoint" />
            <mxPoint x="790" y="1010" as="targetPoint" />
          </mxGeometry>
        </mxCell>
        <mxCell id="yWfFhCfaxmLzrIKiqw5u-25" value="" style="endArrow=none;html=1;rounded=0;exitX=0;exitY=1;exitDx=0;exitDy=0;exitPerimeter=0;" edge="1" parent="1" source="yWfFhCfaxmLzrIKiqw5u-20" target="yWfFhCfaxmLzrIKiqw5u-22">
          <mxGeometry width="50" height="50" relative="1" as="geometry">
            <mxPoint x="740" y="1060" as="sourcePoint" />
            <mxPoint x="790" y="1010" as="targetPoint" />
          </mxGeometry>
        </mxCell>
        <mxCell id="yWfFhCfaxmLzrIKiqw5u-26" value="" style="endArrow=none;html=1;rounded=0;entryX=0.283;entryY=0.045;entryDx=0;entryDy=0;entryPerimeter=0;exitX=1;exitY=0.3333333333333333;exitDx=0;exitDy=0;exitPerimeter=0;" edge="1" parent="1" source="yWfFhCfaxmLzrIKiqw5u-20" target="yWfFhCfaxmLzrIKiqw5u-23">
          <mxGeometry width="50" height="50" relative="1" as="geometry">
            <mxPoint x="910" y="1060" as="sourcePoint" />
            <mxPoint x="960" y="1010" as="targetPoint" />
          </mxGeometry>
        </mxCell>
      </root>
    </mxGraphModel>
  </diagram>
</mxfile>
